<svg width="24" height="25" viewBox="0 0 24 25" fill="none" xmlns="http://www.w3.org/2000/svg">
<path fill-rule="evenodd" clip-rule="evenodd" d="M4.00635 2.51855C2.90178 2.51855 2.00635 3.41398 2.00635 4.51855V11H6.00012V7C6.00012 6.44772 6.44784 6 7.00012 6H17.0001C17.5524 6 18.0001 6.44772 18.0001 7V11H22.0001V13H2.00635V17.503C2.00635 18.8837 3.12564 20.003 4.50635 20.003H4.54752C4.78625 21.4205 6.01948 22.5005 7.50493 22.5005C8.99038 22.5005 10.2236 21.4205 10.4623 20.003H13.5443C13.7834 21.4207 15.0171 22.5005 16.5026 22.5005C17.9882 22.5005 19.2216 21.4206 19.4607 20.003H19.5001C20.8809 20.003 22.0001 18.8837 22.0001 17.503V4.51855C22.0001 3.41399 21.1047 2.51855 20.0001 2.51855H4.00635ZM6.00012 15.5C6.00012 14.9477 6.44784 14.5 7.00012 14.5H8.00012C8.55241 14.5 9.00012 14.9477 9.00012 15.5C9.00012 16.0523 8.55241 16.5 8.00012 16.5H7.00012C6.44784 16.5 6.00012 16.0523 6.00012 15.5ZM16.0001 14.5C15.4478 14.5 15.0001 14.9477 15.0001 15.5C15.0001 16.0523 15.4478 16.5 16.0001 16.5H17.0001C17.5524 16.5 18.0001 16.0523 18.0001 15.5C18.0001 14.9477 17.5524 14.5 17.0001 14.5H16.0001Z" fill="black" fill-opacity="0.65"/>
<path d="M16.0001 11V8H8.00012V11H16.0001Z" fill="black" fill-opacity="0.65"/>
</svg>
